<svg width="40" height="40" viewBox="0 0 40 40" fill="none" xmlns="http://www.w3.org/2000/svg">
<path d="M35.2332 7.68345C34.3819 6.83179 33.3712 6.15619 32.2588 5.69525C31.1464 5.23432 29.954 4.99707 28.7499 4.99707C27.5457 4.99707 26.3534 5.23432 25.2409 5.69525C24.1285 6.15619 23.1178 6.83179 22.2665 7.68345L20.4999 9.45011L18.7332 7.68345C17.0137 5.96396 14.6816 4.99796 12.2499 4.99796C9.81815 4.99796 7.48603 5.96396 5.76654 7.68345C4.04705 9.40293 3.08105 11.7351 3.08105 14.1668C3.08105 16.5985 4.04705 18.9306 5.76654 20.6501L7.53321 22.4168L20.4999 35.3834L33.4665 22.4168L35.2332 20.6501C36.0849 19.7989 36.7605 18.7881 37.2214 17.6757C37.6823 16.5633 37.9196 15.3709 37.9196 14.1668C37.9196 12.9626 37.6823 11.7703 37.2214 10.6579C36.7605 9.54542 36.0849 8.53471 35.2332 7.68345Z" stroke="currentColor" stroke-width="2" stroke-linecap="round" stroke-linejoin="round"/>
</svg>
