<svg width="40" height="40" viewBox="0 0 40 40" fill="none" xmlns="http://www.w3.org/2000/svg">
<path d="M3.33398 5H13.334C15.1021 5 16.7978 5.70238 18.048 6.95262C19.2983 8.20286 20.0007 9.89856 20.0007 11.6667V35C20.0007 33.6739 19.4739 32.4021 18.5362 31.4645C17.5985 30.5268 16.3267 30 15.0007 30H3.33398V5Z" stroke="#3AE8C5" stroke-width="2" stroke-linecap="round" stroke-linejoin="round"/>
<path d="M36.6667 5H26.6667C24.8986 5 23.2029 5.70238 21.9526 6.95262C20.7024 8.20286 20 9.89856 20 11.6667V35C20 33.6739 20.5268 32.4021 21.4645 31.4645C22.4021 30.5268 23.6739 30 25 30H36.6667V5Z" stroke="#3AE8C5" stroke-width="2" stroke-linecap="round" stroke-linejoin="round"/>
</svg>
